<svg width="84" height="111" viewBox="0 0 84 111" fill="none" xmlns="http://www.w3.org/2000/svg">
<rect width="84" height="111" fill="black" fill-opacity="0.2"/>
<path d="M50.6938 87.9997C46.4199 89.2524 42.0754 89.7656 37.6604 89.5395C33.2786 89.2344 29.5515 88.2883 26.479 86.7011L27.4108 73.7824C30.3259 75.2083 33.5609 76.0913 37.116 76.4314C40.6709 76.7715 44.0447 76.4737 47.2372 75.538C50.79 74.4967 53.235 73.0891 54.5717 71.3152C55.8904 69.4775 56.2416 67.4743 55.6255 65.3055C55.1724 63.7108 54.286 62.5539 52.9663 61.8351C51.6797 61.0375 50.1478 60.5536 48.3703 60.3835C46.6443 60.1985 44.3339 60.1155 41.4388 60.1348C36.975 60.1301 33.2581 59.9066 30.2876 59.4643C27.3172 59.022 24.4988 57.7406 21.8325 55.6196C19.2176 53.4838 17.2759 50.1832 16.0073 45.7179C14.9019 41.8267 14.7548 38.0692 15.566 34.4454C16.3591 30.7579 18.1921 27.4911 21.0651 24.6451C23.9895 21.784 27.9234 19.6291 32.8666 18.1802C36.3165 17.1691 39.8342 16.6908 43.4197 16.7456C47.0051 16.8003 50.3054 17.4223 53.3208 18.6116L52.8024 31.5129C46.811 29.4684 41.3178 29.178 36.3231 30.642C32.8217 31.6683 30.4207 33.1321 29.1202 35.0336C27.8711 36.9198 27.5728 39.0113 28.2252 41.3077C28.8776 43.6041 30.3195 45.0472 32.551 45.6371C34.8157 46.148 38.0846 46.3647 42.3576 46.2869C46.8212 46.2916 50.5383 46.5152 53.5086 46.9575C56.4791 47.3998 59.2627 48.6569 61.8594 50.729C64.5076 52.786 66.466 56.0472 67.7346 60.5125C68.822 64.3399 68.9434 68.1049 68.0987 71.8076C67.2875 75.4314 65.4196 78.6737 62.4952 81.5349C59.5708 84.3959 55.6369 86.551 50.6938 87.9997Z" fill="white"/>
<path d="M51.9543 92.4368C47.6804 93.6896 43.336 94.2028 38.9209 93.9765C34.5392 93.6714 30.8121 92.7254 27.7396 91.1383L28.6712 78.2195C31.5865 79.6455 34.8215 80.5284 38.3764 80.8685C41.9314 81.2086 45.3051 80.9108 48.4976 79.9751C52.0506 78.9338 54.4956 77.5262 55.8323 75.7524C57.151 73.9146 57.5022 71.9114 56.8861 69.7425C56.433 68.1478 55.5466 66.991 54.2267 66.2722C52.9403 65.4746 51.4084 64.9907 49.6309 64.8206C47.9049 64.6354 45.5944 64.5526 42.6993 64.5718C38.2356 64.5672 34.5185 64.3437 31.5482 63.9014C28.5778 63.4591 25.7593 62.1775 23.093 60.0568C20.4782 57.9209 18.5365 54.6203 17.2679 50.155C16.1624 46.2638 16.0153 42.5063 16.8266 38.8825C17.6197 35.195 19.4527 31.9282 22.3256 29.0822C25.2501 26.2211 29.1838 24.0662 34.1271 22.6173C37.5771 21.6062 41.0948 21.1279 44.6802 21.1827C48.2657 21.2374 51.566 21.8595 54.5814 23.0487L54.063 35.95C48.0716 33.9054 42.5784 33.6152 37.5837 35.0791C34.0823 36.1054 31.6813 37.5692 30.3808 39.4705C29.1316 41.357 28.8333 43.4482 29.4858 45.7448C30.1382 48.0412 31.5801 49.4843 33.8115 50.0741C36.0763 50.5851 39.3452 50.8017 43.618 50.7241C48.0818 50.7287 51.7988 50.9521 54.7692 51.3944C57.7397 51.8369 60.5233 53.0941 63.12 55.1661C65.7682 57.2231 67.7267 60.4843 68.9952 64.9496C70.0826 68.777 70.2038 72.542 69.3592 76.2447C68.548 79.8685 66.6802 83.1109 63.7558 85.9719C60.8314 88.8331 56.8975 90.9879 51.9543 92.4368Z" fill="#FF4654"/>
</svg>
